/* XPM */
static char *softnote16[] = {
/* columns rows colors chars-per-pixel */
"16 16 46 1 ",
"  c #3699EB",
". c #3799EB",
"X c #379AEB",
"o c #389AEB",
"O c #399AEB",
"+ c #3A9BEB",
"@ c #3C9CEB",
"# c #3F9DEC",
"$ c #419FEC",
"% c #429FEC",
"& c #44A0EC",
"* c #45A1EC",
"= c #47A2EC",
"- c #48A2ED",
"; c #49A2ED",
": c #49A3ED",
"> c #4AA3ED",
", c #4BA4ED",
"< c #4CA4ED",
"1 c #4DA5ED",
"2 c #50A6ED",
"3 c #52A7ED",
"4 c #53A8EE",
"5 c #54A8EE",
"6 c #56A9EE",
"7 c #5CACEE",
"8 c #5FAEEF",
"9 c #66B1EF",
"0 c #68B2F0",
"q c #69B3F0",
"w c #6CB4F0",
"e c #6DB5F0",
"r c #70B6F0",
"t c #72B7F1",
"y c #73B8F1",
"u c #76BAF1",
"i c #77BAF1",
"p c #78BAF1",
"a c #7DBDF2",
"s c #81BFF2",
"d c #82C0F2",
"f c #84C0F2",
"g c #8AC3F3",
"h c #8AC4F3",
"j c #8DC5F3",
"k c None",
/* pixels */
"kkkkkkkookkkkkkk",
"kkkkooooooookkkk",
"kkkooooooooookkk",
"kkooooooooooookk",
"kooooooooooooook",
"kX.ooXXXXooooook",
"k&,OX=-$%#X+@.Xk",
"orq79fhide9et08O",
"X6sapuyesjiaygw+",
"k>4<3&;<*15:<2>k",
"k. ..X..X. ....k",
"kooooooooooooook",
"kkooooooooooookk",
"kkkooooooooookkk",
"kkkkooooooookkkk",
"kkkkkkkookkkkkkk"
};
