/* XPM */
static char *softnote128[] = {
/* columns rows colors chars-per-pixel */
"128 128 41 1 ",
"  c #3699EB",
". c #389AEB",
"X c #419EEC",
"o c #46A1EC",
"O c #4CA4ED",
"+ c #51A7ED",
"@ c #55A8ED",
"# c #5AABEE",
"$ c #61AFEF",
"% c #65B1EF",
"& c #69B2EF",
"* c #6BB4F0",
"= c #71B6F0",
"- c #75B9F1",
"; c #7ABBF1",
": c #81BEF2",
"> c #84C0F2",
", c #8BC4F3",
"< c #91C7F3",
"1 c #95C9F4",
"2 c #9BCCF5",
"3 c #A0CEF5",
"4 c #A4D1F5",
"5 c #ABD4F6",
"6 c #B1D7F7",
"7 c #B4D9F7",
"8 c #BADCF7",
"9 c #BCDDF8",
"0 c #C1DFF8",
"q c #C3E0F9",
"w c #CBE4F9",
"e c #D0E7FA",
"r c #D4E9FA",
"t c #DCEDFB",
"y c #E1EFFC",
"u c #E5F2FC",
"i c #ECF5FD",
"p c #F0F7FD",
"a c #F4F9FE",
"s c #FDFEFF",
"d c None",
/* pixels */
"dddddddddddddddddddddddddddddddddddddddddddddddddddddddddddddddddddddddddddddddddddddddddddddddddddddddddddddddddddddddddddddddd",
"dddddddddddddddddddddddddddddddddddddddddddddddddddddddddddddddddddddddddddddddddddddddddddddddddddddddddddddddddddddddddddddddd",
"dddddddddddddddddddddddddddddddddddddddddddddddddddddddddddddddddddddddddddddddddddddddddddddddddddddddddddddddddddddddddddddddd",
"dddddddddddddddddddddddddddddddddddddddddddddddddddddddddddddddddddddddddddddddddddddddddddddddddddddddddddddddddddddddddddddddd",
"dddddddddddddddddddddddddddddddddddddddddddddddddddddddd................dddddddddddddddddddddddddddddddddddddddddddddddddddddddd",
"ddddddddddddddddddddddddddddddddddddddddddddddddddd..........................ddddddddddddddddddddddddddddddddddddddddddddddddddd",
"ddddddddddddddddddddddddddddddddddddddddddddddd..................................ddddddddddddddddddddddddddddddddddddddddddddddd",
"dddddddddddddddddddddddddddddddddddddddddddd........................................dddddddddddddddddddddddddddddddddddddddddddd",
"ddddddddddddddddddddddddddddddddddddddddd..............................................ddddddddddddddddddddddddddddddddddddddddd",
"ddddddddddddddddddddddddddddddddddddddd..................................................ddddddddddddddddddddddddddddddddddddddd",
"ddddddddddddddddddddddddddddddddddddd......................................................ddddddddddddddddddddddddddddddddddddd",
"ddddddddddddddddddddddddddddddddddd......... ................................................ddddddddddddddddddddddddddddddddddd",
"ddddddddddddddddddddddddddddddddd..............................................................ddddddddddddddddddddddddddddddddd",
"dddddddddddddddddddddddddddddddd................................................................dddddddddddddddddddddddddddddddd",
"dddddddddddddddddddddddddddddd....................................................................dddddddddddddddddddddddddddddd",
"ddddddddddddddddddddddddddddd......................................................................ddddddddddddddddddddddddddddd",
"ddddddddddddddddddddddddddd..........................................................................ddddddddddddddddddddddddddd",
"dddddddddddddddddddddddddd............................................................................dddddddddddddddddddddddddd",
"ddddddddddddddddddddddddd............................................................ .................ddddddddddddddddddddddddd",
"dddddddddddddddddddddddd............................... ................................................dddddddddddddddddddddddd",
"ddddddddddddddddddddddd......... ......................................... ................ .............ddddddddddddddddddddddd",
"dddddddddddddddddddddd..................... .................. ...........................................dddddddddddddddddddddd",
"ddddddddddddddddddddd......................................................................................ddddddddddddddddddddd",
"dddddddddddddddddddd........................................................................................dddddddddddddddddddd",
"ddddddddddddddddddd............................ .............................................................ddddddddddddddddddd",
"dddddddddddddddddd................................... ........................................................dddddddddddddddddd",
"ddddddddddddddddd..............................................................................................ddddddddddddddddd",
"dddddddddddddddd................................................................................................dddddddddddddddd",
"dddddddddddddddd.................................................................. ....... .....................dddddddddddddddd",
"ddddddddddddddd............................................. ....................................................ddddddddddddddd",
"dddddddddddddd................... ......................................... ......................................dddddddddddddd",
"dddddddddddddd....................................................................................................dddddddddddddd",
"ddddddddddddd......................................................................................................ddddddddddddd",
"dddddddddddd................................................................................................... ....dddddddddddd",
"dddddddddddd.............................................. .........................................................dddddddddddd",
"ddddddddddd..........................................................................................................ddddddddddd",
"ddddddddddd..........................................................................................................ddddddddddd",
"dddddddddd............................................................................................................dddddddddd",
"dddddddddd.......................................................... .................................................dddddddddd",
"ddddddddd..................... ....... ........ ............................ ..........................................ddddddddd",
"ddddddddd.................................................................................................... .........ddddddddd",
"dddddddd................................................................................................................dddddddd",
"dddddddd........................ ................................ .............. .......................................dddddddd",
"dddddddd................................................................................................................dddddddd",
"ddddddd........................................................................ .........................................ddddddd",
"ddddddd..................................................................................................................ddddddd",
"ddddddd..................................................................................................................ddddddd",
"dddddd........................................ ...........................................................................dddddd",
"dddddd....................................................................................................................dddddd",
"dddddd....................................................................................................................dddddd",
"dddddd............................................................ ........ ..............................................dddddd",
"ddddd................................................................................................ .....................ddddd",
"ddddd............................................ ......................... ..... .........................................ddddd",
"ddddd........... ...............................  ......................... ...............................................ddddd",
"ddddd........ .ooOOo.. ..................... o;222#...........     ......   ............... ...............................ddddd",
"ddddd........@2quuur7,#.............. ......&rassa;.Oo.......X122&  .....-4;....................oO.........................ddddd",
"dddd........=tsspiiasswo...................owst421@%yt@ .... +isswo......8sq. .................$tt@  .......................dddd",
"dddd.......#ust<$O#=1rro...................$pa-.   *ai# .... +issa>......6sqo................. *ai# ........................dddd",
"dddd.......3si&. ..  O&o........    ...... =aiO  . %ap#  . . +isisrO.....8sqo....... .   ..... *ap# .. .......  ............dddd",
"dddd......Xqs9......   .......O;,1:#.....XO>ai#OOoo;ai*OO+X. +is5ua,....X6sq......X&>1,=o ....o;ap*OOOo.....o*,1,*o.........dddd",
"dddd......ows8..............X,tssssi4O.. >ipssiii80assiiii6..@is>3st+....7sqo ...#8pssssr;...X0assiiii6....*wasssae=........dddd",
"dddd......X9st#. .. ........1asr54was0o. ,ipssiii70psspiii5X @is>@us2....7sqX . #rsp935usi;..X9psspiii5o..;ist525tsi*.......dddd",
"dddd.......>ssr,#o.  ......&is7+..X1as1. XO,au$O+Xo;ap*o++X. @is: 1su#...7sqo...6si;...#est+..o;ap*o+Oo..#ya4O...O8swo......dddd",
"dddd.......o7sssir8<$......5st@.....8srO   -siO.  .*ap#   .. @is> +ts4..X7sq.. $is1.... *ps,...&ai#  ....2sqX.... #ua*......dddd",
"dddd........X1rassssi6#...ors4..... ;ap*...-syO.   *ai# .....+is:  ,si#..7sqX..>si#......qs8...*pp@ ....ows2o+OOOO@ws1......dddd",
"dddd..........X*16rassw+..@ia:..... @is> ..;siO..  *ai# .....@is>..ows6..7sqX..2sro......4swo. *pp# ... Oispiiiiiipas2 .....dddd",
"dddd..........  ..o*qss3..#pa;......Ous,   -auO... *ai# .....+is; ..:sp&.7sqX .5sq.......2sto  &ai# ... #ispiiiiiiiii2 .....dddd",
"dddd................@tseo #ps;......Ois, . -suO .. *ai# .....+is> ..ows9o7sqX..4swo..... 2sro  &ap# ... #is,oOOOOOOOOo......dddd",
"dddd.................8suo Ous<..... &is- . -suo... *ap# .....+is:....-aa;6sqX  1syO......5swX. &ai# ... ous1   ...  . ......dddd",
"dddd.................8sro .qs0..... <si@   ;suO... &pp# .....@ia: ....9sw0sqX  -aa=.....Ots4.. &ai# ... X8swX .....  .......dddd",
"dddd......X&+.  ....*us8...,sp;... @ts8... -suO... @ia;   .. @is> ....*psisqX. ors0o ...2sa=.. @ia;    ..;as2..... X&X......dddd",
"dddd......X0t5;$O+$<usi=.. Owsu<#@;wsi&....;aiO .  Xwsu422;..@ia:......7sssqX...>as9*O$4ps6....Xwsu522;..X7sa7=@+%>9t+ .....dddd",
"ddddd.....X9ssspiiassu>.... #esaiissu:.... ;suO.... *tasss9X.+is> .... &issqX...X2psaipsa9O ... *tasss9X..o6asaiiaas8o.....ddddd",
"ddddd......@>5wtiut02#.......+1wuue5$..... #2,X .....@;122;..o<1# ...  .;22;......*7riyq,o.......@;112;... X-6riur5-o......ddddd",
"ddddd......  .XooOoX......... .XoOo........   ....... .    .... ..........  ........oOO.............  ...... .oOOo.  ......ddddd",
"ddddd.......................... ............ ................................. ................................ . .........ddddd",
"ddddd......................................................................................................................ddddd",
"dddddd.................... ...............................................................................................dddddd",
"dddddd....................................................................................................................dddddd",
"dddddd...................................................... ................................ ............................dddddd",
"dddddd....................................................................................................................dddddd",
"ddddddd..................................................................................................................ddddddd",
"ddddddd.................................... ............ ................................................................ddddddd",
"ddddddd........................................................................ .........................................ddddddd",
"dddddddd............................................................................................... ................dddddddd",
"dddddddd......... ............................................................................................. ........dddddddd",
"dddddddd............................................. ............ ............. .......................................dddddddd",
"ddddddddd.................. .................................................................. ................... ....ddddddddd",
"ddddddddd................................. ............................................ ........... ...................ddddddddd",
"dddddddddd............................................................................................................dddddddddd",
"dddddddddd..................... ............................................. ........................................dddddddddd",
"ddddddddddd............................ ............................ ................................................ddddddddddd",
"ddddddddddd................................................... ......................................................ddddddddddd",
"dddddddddddd........................................................................................................dddddddddddd",
"dddddddddddd........................................ ........................................................ ......dddddddddddd",
"ddddddddddddd... ..................................................................................................ddddddddddddd",
"dddddddddddddd........................................................ ........ .................... .... ........dddddddddddddd",
"dddddddddddddd....................................................................................................dddddddddddddd",
"ddddddddddddddd........................... ............................................ ...... ..................ddddddddddddddd",
"dddddddddddddddd.................................. .............................................................dddddddddddddddd",
"dddddddddddddddd................................................................................................dddddddddddddddd",
"ddddddddddddddddd..................... ..................... ..................................................ddddddddddddddddd",
"dddddddddddddddddd............................................................................................dddddddddddddddddd",
"ddddddddddddddddddd..........................................................................................ddddddddddddddddddd",
"dddddddddddddddddddd.................................................................. .....................dddddddddddddddddddd",
"ddddddddddddddddddddd................................................. ....................................ddddddddddddddddddddd",
"dddddddddddddddddddddd............................. ......................................................dddddddddddddddddddddd",
"ddddddddddddddddddddddd.................................... .............................................ddddddddddddddddddddddd",
"dddddddddddddddddddddddd.............. .......................................................... ......dddddddddddddddddddddddd",
"ddddddddddddddddddddddddd..............................................................................ddddddddddddddddddddddddd",
"dddddddddddddddddddddddddd.................. ............................................. ...........dddddddddddddddddddddddddd",
"ddddddddddddddddddddddddddd............................................. ............................ddddddddddddddddddddddddddd",
"ddddddddddddddddddddddddddddd............. ........................................................ddddddddddddddddddddddddddddd",
"dddddddddddddddddddddddddddddd....................................................................dddddddddddddddddddddddddddddd",
"dddddddddddddddddddddddddddddddd.............................................. ... .............dddddddddddddddddddddddddddddddd",
"ddddddddddddddddddddddddddddddddd..............................................................ddddddddddddddddddddddddddddddddd",
"ddddddddddddddddddddddddddddddddddd..........................................................ddddddddddddddddddddddddddddddddddd",
"ddddddddddddddddddddddddddddddddddddd......................................................ddddddddddddddddddddddddddddddddddddd",
"ddddddddddddddddddddddddddddddddddddddd................ ....... .. ......................ddddddddddddddddddddddddddddddddddddddd",
"ddddddddddddddddddddddddddddddddddddddddd..............................................ddddddddddddddddddddddddddddddddddddddddd",
"dddddddddddddddddddddddddddddddddddddddddddd........................................dddddddddddddddddddddddddddddddddddddddddddd",
"ddddddddddddddddddddddddddddddddddddddddddddddd.. ...............................ddddddddddddddddddddddddddddddddddddddddddddddd",
"ddddddddddddddddddddddddddddddddddddddddddddddddddd..........................ddddddddddddddddddddddddddddddddddddddddddddddddddd",
"dddddddddddddddddddddddddddddddddddddddddddddddddddddddd................dddddddddddddddddddddddddddddddddddddddddddddddddddddddd",
"dddddddddddddddddddddddddddddddddddddddddddddddddddddddddddddddddddddddddddddddddddddddddddddddddddddddddddddddddddddddddddddddd",
"dddddddddddddddddddddddddddddddddddddddddddddddddddddddddddddddddddddddddddddddddddddddddddddddddddddddddddddddddddddddddddddddd",
"dddddddddddddddddddddddddddddddddddddddddddddddddddddddddddddddddddddddddddddddddddddddddddddddddddddddddddddddddddddddddddddddd",
"dddddddddddddddddddddddddddddddddddddddddddddddddddddddddddddddddddddddddddddddddddddddddddddddddddddddddddddddddddddddddddddddd"
};
